<svg width="1182" height="264" viewBox="0 0 1182 264" fill="none" xmlns="http://www.w3.org/2000/svg">
<path d="M367.7 186.8C359.6 186.8 352.05 185.5 345.05 182.9C338.15 180.2 332.15 176.4 327.05 171.5C321.95 166.6 317.95 160.85 315.05 154.25C312.25 147.65 310.85 140.4 310.85 132.5C310.85 124.6 312.25 117.35 315.05 110.75C317.95 104.15 321.95 98.4 327.05 93.5C332.25 88.6 338.3 84.85 345.2 82.25C352.1 79.55 359.65 78.2 367.85 78.2C376.95 78.2 385.15 79.8 392.45 83C399.85 86.1 406.05 90.7 411.05 96.8L395.45 111.2C391.85 107.1 387.85 104.05 383.45 102.05C379.05 99.95 374.25 98.9 369.05 98.9C364.15 98.9 359.65 99.7 355.55 101.3C351.45 102.9 347.9 105.2 344.9 108.2C341.9 111.2 339.55 114.75 337.85 118.85C336.25 122.95 335.45 127.5 335.45 132.5C335.45 137.5 336.25 142.05 337.85 146.15C339.55 150.25 341.9 153.8 344.9 156.8C347.9 159.8 351.45 162.1 355.55 163.7C359.65 165.3 364.15 166.1 369.05 166.1C374.25 166.1 379.05 165.1 383.45 163.1C387.85 161 391.85 157.85 395.45 153.65L411.05 168.05C406.05 174.15 399.85 178.8 392.45 182C385.15 185.2 376.9 186.8 367.7 186.8ZM491.263 186.8C482.963 186.8 475.263 185.45 468.163 182.75C461.163 180.05 455.063 176.25 449.862 171.35C444.763 166.45 440.763 160.7 437.863 154.1C435.063 147.5 433.663 140.3 433.663 132.5C433.663 124.7 435.063 117.5 437.863 110.9C440.763 104.3 444.813 98.55 450.013 93.65C455.213 88.75 461.313 84.95 468.313 82.25C475.313 79.55 482.913 78.2 491.113 78.2C499.413 78.2 507.012 79.55 513.913 82.25C520.913 84.95 526.963 88.75 532.063 93.65C537.263 98.55 541.313 104.3 544.213 110.9C547.113 117.4 548.563 124.6 548.563 132.5C548.563 140.3 547.113 147.55 544.213 154.25C541.313 160.85 537.263 166.6 532.063 171.5C526.963 176.3 520.913 180.05 513.913 182.75C507.012 185.45 499.462 186.8 491.263 186.8ZM491.113 166.1C495.813 166.1 500.113 165.3 504.013 163.7C508.013 162.1 511.513 159.8 514.513 156.8C517.513 153.8 519.813 150.25 521.413 146.15C523.113 142.05 523.963 137.5 523.963 132.5C523.963 127.5 523.113 122.95 521.413 118.85C519.813 114.75 517.513 111.2 514.513 108.2C511.613 105.2 508.163 102.9 504.163 101.3C500.163 99.7 495.813 98.9 491.113 98.9C486.413 98.9 482.063 99.7 478.063 101.3C474.163 102.9 470.713 105.2 467.713 108.2C464.713 111.2 462.363 114.75 460.663 118.85C459.063 122.95 458.263 127.5 458.263 132.5C458.263 137.4 459.063 141.95 460.663 146.15C462.363 150.25 464.663 153.8 467.563 156.8C470.563 159.8 474.063 162.1 478.063 163.7C482.063 165.3 486.413 166.1 491.113 166.1ZM581.825 185V80H601.925L646.625 154.1H635.975L679.925 80H699.875L700.175 185H677.375L677.225 114.95H681.425L646.325 173.9H635.375L599.525 114.95H604.625V185H581.825ZM740.087 185V80H785.537C794.937 80 803.037 81.55 809.837 84.65C816.637 87.65 821.887 92 825.587 97.7C829.287 103.4 831.137 110.2 831.137 118.1C831.137 125.9 829.287 132.65 825.587 138.35C821.887 144.05 816.637 148.45 809.837 151.55C803.037 154.55 794.937 156.05 785.537 156.05H753.587L764.387 145.1V185H740.087ZM764.387 147.8L753.587 136.25H784.187C791.687 136.25 797.287 134.65 800.987 131.45C804.687 128.25 806.537 123.8 806.537 118.1C806.537 112.3 804.687 107.8 800.987 104.6C797.287 101.4 791.687 99.8 784.187 99.8H753.587L764.387 88.25V147.8ZM844.412 185L891.212 80H915.212L962.162 185H936.662L898.262 92.3H907.862L869.312 185H844.412ZM867.812 162.5L874.262 144.05H928.262L934.862 162.5H867.812ZM1022.56 186.8C1014.16 186.8 1006.11 185.7 998.405 183.5C990.705 181.2 984.505 178.25 979.805 174.65L988.055 156.35C992.555 159.55 997.855 162.2 1003.96 164.3C1010.16 166.3 1016.41 167.3 1022.71 167.3C1027.51 167.3 1031.36 166.85 1034.26 165.95C1037.26 164.95 1039.46 163.6 1040.86 161.9C1042.26 160.2 1042.96 158.25 1042.96 156.05C1042.96 153.25 1041.86 151.05 1039.66 149.45C1037.46 147.75 1034.56 146.4 1030.96 145.4C1027.36 144.3 1023.36 143.3 1018.96 142.4C1014.66 141.4 1010.31 140.2 1005.91 138.8C1001.61 137.4 997.655 135.6 994.055 133.4C990.455 131.2 987.505 128.3 985.205 124.7C983.005 121.1 981.905 116.5 981.905 110.9C981.905 104.9 983.505 99.45 986.705 94.55C990.005 89.55 994.905 85.6 1001.41 82.7C1008.01 79.7 1016.26 78.2 1026.16 78.2C1032.76 78.2 1039.26 79 1045.66 80.6C1052.06 82.1 1057.71 84.4 1062.61 87.5L1055.11 105.95C1050.21 103.15 1045.31 101.1 1040.41 99.8C1035.51 98.4 1030.71 97.7 1026.01 97.7C1021.31 97.7 1017.46 98.25 1014.46 99.35C1011.46 100.45 1009.31 101.9 1008.01 103.7C1006.71 105.4 1006.06 107.4 1006.06 109.7C1006.06 112.4 1007.16 114.6 1009.36 116.3C1011.56 117.9 1014.46 119.2 1018.06 120.2C1021.66 121.2 1025.61 122.2 1029.91 123.2C1034.31 124.2 1038.66 125.35 1042.96 126.65C1047.36 127.95 1051.36 129.7 1054.96 131.9C1058.56 134.1 1061.46 137 1063.66 140.6C1065.96 144.2 1067.11 148.75 1067.11 154.25C1067.11 160.15 1065.46 165.55 1062.16 170.45C1058.86 175.35 1053.91 179.3 1047.31 182.3C1040.81 185.3 1032.56 186.8 1022.56 186.8ZM1133.21 186.8C1124.81 186.8 1116.76 185.7 1109.06 183.5C1101.36 181.2 1095.16 178.25 1090.46 174.65L1098.71 156.35C1103.21 159.55 1108.51 162.2 1114.61 164.3C1120.81 166.3 1127.06 167.3 1133.36 167.3C1138.16 167.3 1142.01 166.85 1144.91 165.95C1147.91 164.95 1150.11 163.6 1151.51 161.9C1152.91 160.2 1153.61 158.25 1153.61 156.05C1153.61 153.25 1152.51 151.05 1150.31 149.45C1148.11 147.75 1145.21 146.4 1141.61 145.4C1138.01 144.3 1134.01 143.3 1129.61 142.4C1125.31 141.4 1120.96 140.2 1116.56 138.8C1112.26 137.4 1108.31 135.6 1104.71 133.4C1101.11 131.2 1098.16 128.3 1095.86 124.7C1093.66 121.1 1092.56 116.5 1092.56 110.9C1092.56 104.9 1094.16 99.45 1097.36 94.55C1100.66 89.55 1105.56 85.6 1112.06 82.7C1118.66 79.7 1126.91 78.2 1136.81 78.2C1143.41 78.2 1149.91 79 1156.31 80.6C1162.71 82.1 1168.36 84.4 1173.26 87.5L1165.76 105.95C1160.86 103.15 1155.96 101.1 1151.06 99.8C1146.16 98.4 1141.36 97.7 1136.66 97.7C1131.96 97.7 1128.11 98.25 1125.11 99.35C1122.11 100.45 1119.96 101.9 1118.66 103.7C1117.36 105.4 1116.71 107.4 1116.71 109.7C1116.71 112.4 1117.81 114.6 1120.01 116.3C1122.21 117.9 1125.11 119.2 1128.71 120.2C1132.31 121.2 1136.26 122.2 1140.56 123.2C1144.96 124.2 1149.31 125.35 1153.61 126.65C1158.01 127.95 1162.01 129.7 1165.61 131.9C1169.21 134.1 1172.11 137 1174.31 140.6C1176.61 144.2 1177.76 148.75 1177.76 154.25C1177.76 160.15 1176.11 165.55 1172.81 170.45C1169.51 175.35 1164.56 179.3 1157.96 182.3C1151.46 185.3 1143.21 186.8 1133.21 186.8Z" fill="#0D1B37"/>
<path d="M132 254C199.379 254 254 199.379 254 132C254 64.6213 199.379 10 132 10C64.6213 10 10 64.6213 10 132C10 199.379 64.6213 254 132 254Z" stroke="#0D1B37" stroke-width="20"/>
<path fill-rule="evenodd" clip-rule="evenodd" d="M146.255 117.745L132 20L117.745 117.745L20 132L117.745 146.255L132 244L146.255 146.255L244 132L146.255 117.745ZM132 147C140.284 147 147 140.284 147 132C147 123.716 140.284 117 132 117C123.716 117 117 123.716 117 132C117 140.284 123.716 147 132 147Z" fill="#0D1B37"/>
<path fill-rule="evenodd" clip-rule="evenodd" d="M132.105 114.554L70.0527 70.0526L114.554 132.105L70.0527 194.158L132.105 149.656L194.158 194.158L149.656 132.105L194.158 70.0526L132.105 114.554ZM132 147C140.284 147 147 140.284 147 132C147 123.716 140.284 117 132 117C123.716 117 117 123.716 117 132C117 140.284 123.716 147 132 147Z" fill="#0D1B37"/>
</svg>
