<svg width="768" height="776" viewBox="0 0 768 776" fill="none" xmlns="http://www.w3.org/2000/svg">
<path d="M56.3299 504.33L114.857 481.014L119.178 491.886L60.6519 515.202L56.3299 504.33Z" fill="black"/>
<path d="M77.4556 556.764L129.256 520.907L134.715 528.841L117.225 588.999L114.521 585.07L154.408 557.46L160.989 567.024L109.188 602.881L103.729 594.948L121.219 534.789L123.923 538.719L84.0368 566.329L77.4556 556.764Z" fill="black"/>
<path d="M153.647 651.194C149.946 647.952 146.856 644.327 144.376 640.32C141.935 636.267 140.45 632.533 139.919 629.117L148.925 624.923C149.523 628.078 150.788 631.38 152.72 634.828C154.653 638.276 157.086 641.285 160.02 643.855C162.502 646.029 164.746 647.517 166.753 648.317C168.759 649.118 170.517 649.382 172.026 649.108C173.574 648.789 174.86 648.041 175.882 646.863C177.141 645.413 177.625 643.803 177.335 642.033C177.084 640.218 176.339 638.33 175.102 636.368C173.95 634.401 172.555 632.302 170.917 630.07C169.325 627.877 167.769 625.597 166.249 623.228C164.814 620.855 163.675 618.46 162.831 616.046C162.072 613.626 161.881 611.146 162.26 608.606C162.638 606.065 163.928 603.527 166.131 600.99C168.374 598.407 171.096 596.645 174.299 595.701C177.586 594.753 181.18 594.869 185.079 596.052C189.064 597.229 193.222 599.716 197.554 603.511C200.398 606.002 202.904 608.835 205.072 612.012C207.241 615.188 208.773 618.365 209.669 621.543L200.934 625.975C199.914 622.848 198.532 620.002 196.787 617.436C195.081 614.825 193.19 612.61 191.114 610.791C188.677 608.656 186.435 607.211 184.389 606.456C182.389 605.74 180.614 605.541 179.066 605.86C177.563 606.218 176.28 607.009 175.218 608.232C173.959 609.682 173.433 611.295 173.639 613.071C173.93 614.841 174.671 616.687 175.863 618.609C177.1 620.57 178.518 622.689 180.116 624.967C181.753 627.199 183.309 629.479 184.784 631.808C186.303 634.176 187.462 636.547 188.261 638.922C189.105 641.336 189.315 643.794 188.891 646.295C188.513 648.835 187.242 651.351 185.079 653.843C182.876 656.38 180.131 658.123 176.843 659.072C173.64 660.015 170.047 659.898 166.063 658.721C162.118 657.499 157.979 654.99 153.647 651.194Z" fill="black"/>
<path d="M218.662 697.732L243.588 650.846L225.199 640.954L229.846 632.213L276.927 657.539L272.28 666.28L253.891 656.389L228.966 703.275L218.662 697.732Z" fill="black"/>
<path d="M281.598 725.877L301.375 666.062L312.466 669.785L292.69 729.6L281.598 725.877Z" fill="black"/>
<path d="M351.926 739.556L355.556 686.58L334.73 685.082L335.407 675.205L388.729 679.04L388.052 688.916L367.226 687.419L363.596 740.395L351.926 739.556Z" fill="black"/>
<path d="M448.823 735.797C440.344 737.456 433.221 736.373 427.454 732.548C421.747 728.712 418.008 722.29 416.236 713.283L409.377 678.401L420.859 676.156L427.632 710.596C428.882 716.954 431.145 721.311 434.421 723.666C437.756 726.009 441.926 726.692 446.932 725.713C451.937 724.734 455.51 722.537 457.651 719.123C459.793 715.709 460.238 710.822 458.988 704.464L452.215 670.024L463.521 667.813L470.381 702.695C472.152 711.702 471.092 719.062 467.201 724.775C463.37 730.477 457.243 734.151 448.823 735.797Z" fill="black"/>
<path d="M530.633 707.342L506.76 659.911L488.124 669.328L483.673 660.485L531.387 636.374L535.838 645.217L517.202 654.634L541.075 702.065L530.633 707.342Z" fill="black"/>
<path d="M593.627 669.855L554.313 620.627L563.431 613.295L602.745 662.524L593.627 669.855Z" fill="black"/>
<path d="M656.776 611.192C653.731 615.057 650.294 618.111 646.464 620.355C642.634 622.599 638.645 624.026 634.497 624.637C630.303 625.211 626.159 624.944 622.067 623.836C617.928 622.691 614.027 620.662 610.364 617.749C606.701 614.836 603.863 611.505 601.851 607.758C599.791 603.974 598.581 599.983 598.22 595.787C597.813 591.554 598.256 587.307 599.55 583.046C600.845 578.786 602.995 574.747 606.003 570.929C609.048 567.065 612.467 564.034 616.259 561.837C620.089 559.594 624.102 558.185 628.296 557.611C632.444 557 636.588 557.267 640.727 558.412C644.819 559.52 648.696 561.531 652.359 564.444C656.022 567.357 658.883 570.705 660.943 574.49C663.003 578.274 664.213 582.265 664.573 586.461C664.934 590.657 664.467 594.886 663.173 599.146C661.916 603.359 659.783 607.375 656.776 611.192ZM648.69 604.877C650.658 602.379 652.055 599.733 652.88 596.94C653.706 594.147 653.956 591.357 653.632 588.569C653.261 585.744 652.376 583.086 650.978 580.594C649.571 578.018 647.599 575.722 645.063 573.705C642.527 571.688 639.873 570.306 637.101 569.558C634.32 568.726 631.542 568.471 628.767 568.794C625.945 569.08 623.276 569.947 620.759 571.396C618.243 572.844 616.001 574.818 614.033 577.315C612.065 579.813 610.669 582.459 609.843 585.252C609.054 587.998 608.827 590.807 609.162 593.679C609.486 596.467 610.352 599.149 611.76 601.725C613.158 604.217 615.124 606.471 617.66 608.487C620.149 610.467 622.784 611.872 625.566 612.705C628.385 613.49 631.205 613.74 634.027 613.454C636.802 613.131 639.448 612.245 641.964 610.797C644.48 609.348 646.722 607.375 648.69 604.877Z" fill="black"/>
<path d="M697.272 552.458L638.784 529.045L642.32 520.088L701.862 501.365L700.111 505.802L655.075 487.774L659.338 476.975L717.826 500.388L714.29 509.345L654.748 528.068L656.499 523.631L701.535 541.659L697.272 552.458Z" fill="black"/>
<path d="M178.103 193.995C174.684 197.364 170.955 199.945 166.915 201.736C162.875 203.442 158.758 204.34 154.564 204.43C150.371 204.435 146.29 203.612 142.323 201.962C138.356 200.312 134.736 197.814 131.462 194.47C128.188 191.126 125.764 187.45 124.19 183.441C122.616 179.432 121.912 175.325 122.077 171.119C122.199 166.87 123.168 162.757 124.983 158.778C126.755 154.757 129.372 151.04 132.834 147.629C136.509 144.007 140.494 141.344 144.787 139.64C149.039 137.893 153.429 137.231 157.957 137.654L157.547 148.041C154.202 147.884 151.105 148.366 148.257 149.488C145.367 150.567 142.747 152.265 140.396 154.581C138.046 156.898 136.266 159.41 135.055 162.119C133.888 164.786 133.27 167.543 133.202 170.39C133.177 173.194 133.703 175.961 134.78 178.691C135.9 181.378 137.593 183.879 139.859 186.195C142.126 188.51 144.588 190.253 147.246 191.424C149.947 192.553 152.695 193.13 155.491 193.155C158.329 193.138 161.088 192.568 163.766 191.444C166.488 190.279 169.023 188.538 171.374 186.222C173.724 183.905 175.484 181.329 176.653 178.492C177.78 175.612 178.274 172.472 178.135 169.071L188.557 168.909C188.855 173.416 188.117 177.808 186.342 182.084C184.567 186.361 181.821 190.331 178.103 193.995Z" fill="black"/>
<path d="M243.543 142.501C239.176 144.767 234.789 146.131 230.381 146.593C225.973 147.055 221.759 146.707 217.74 145.548C213.693 144.336 210.042 142.377 206.786 139.673C203.503 136.916 200.802 133.45 198.685 129.277C196.567 125.103 195.371 120.891 195.097 116.639C194.797 112.334 195.353 108.193 196.766 104.215C198.151 100.184 200.315 96.493 203.257 93.1416C206.198 89.7902 209.826 86.9953 214.14 84.7569C218.507 82.4909 222.868 81.1407 227.222 80.7062C231.63 80.2441 235.857 80.6192 239.904 81.8316C243.923 82.9905 247.575 84.9488 250.858 87.7063C254.114 90.4104 256.801 93.8492 258.919 98.0226C261.036 102.196 262.246 106.435 262.547 110.74C262.847 115.045 262.291 119.187 260.878 123.164C259.466 127.142 257.288 130.806 254.347 134.158C251.458 137.482 247.857 140.263 243.543 142.501ZM238.82 133.393C241.643 131.929 244.008 130.093 245.916 127.886C247.824 125.68 249.209 123.238 250.07 120.56C250.905 117.829 251.204 115.037 250.968 112.186C250.758 109.253 249.92 106.342 248.454 103.453C246.987 100.563 245.151 98.2042 242.945 96.375C240.764 94.4647 238.347 93.0827 235.694 92.2289C233.013 91.3217 230.23 91.0083 227.345 91.2887C224.459 91.5692 221.605 92.4417 218.783 93.9063C215.96 95.3709 213.595 97.2065 211.687 99.4132C209.832 101.592 208.461 104.061 207.574 106.82C206.712 109.497 206.386 112.303 206.596 115.235C206.832 118.087 207.683 120.957 209.15 123.847C210.589 126.683 212.398 129.056 214.579 130.966C216.813 132.849 219.27 134.244 221.95 135.151C224.604 136.005 227.373 136.291 230.259 136.011C233.144 135.73 235.998 134.858 238.82 133.393Z" fill="black"/>
<path d="M296.111 115.125L287.404 52.7298L296.925 51.2879L330.511 92.7129L325.528 93.4676L345.956 43.8627L355.478 42.4208L364.274 104.803L353.329 106.46L346.933 61.2816L349.247 60.9313L331.778 102.442L326.617 103.224L298.169 68.6664L300.839 68.2621L307.145 113.454L296.111 115.125Z" fill="black"/>
<path d="M396.537 103.794L403.527 41.1826L429.314 43.8058C434.865 44.3706 439.511 45.7477 443.251 47.9374C447.051 50.1331 449.839 53.0099 451.615 56.5678C453.391 60.1256 454.023 64.2003 453.51 68.7918C452.997 73.3833 451.48 77.2393 448.958 80.36C446.437 83.4806 443.076 85.732 438.877 87.114C434.738 88.5021 429.893 88.9138 424.341 88.3491L405.001 86.3817L410.803 81.4539L408.177 104.978L396.537 103.794ZM410.664 82.7061L406.099 76.5428L424.902 78.4556C430.036 78.9778 434.006 78.2961 436.812 76.4106C439.685 74.4715 441.341 71.5341 441.78 67.5986C442.226 63.6034 441.256 60.3989 438.869 57.985C436.542 55.5773 432.812 54.1123 427.678 53.5901L408.875 51.6773L414.708 46.4811L410.664 82.7061Z" fill="black"/>
<path d="M457.539 110.016L509.011 63.729L519.571 68.3325L520.158 137.313L508.938 132.422L509.551 70.739L513.841 72.6092L468.594 114.835L457.539 110.016ZM475.4 101.897L482 94.7603L513.186 108.355L512.36 118.009L475.4 101.897Z" fill="black"/>
<path d="M556.59 163.89C552.714 160.86 549.428 157.415 546.733 153.556C544.074 149.65 542.389 146.009 541.676 142.634L550.463 137.965C551.229 141.078 552.671 144.299 554.789 147.631C556.907 150.962 559.502 153.829 562.575 156.231C565.175 158.263 567.5 159.624 569.55 160.313C571.601 161.002 573.373 161.17 574.869 160.815C576.401 160.414 577.647 159.598 578.607 158.369C579.79 156.856 580.188 155.226 579.803 153.477C579.454 151.682 578.609 149.84 577.266 147.953C576.008 146.055 574.5 144.039 572.742 141.903C571.032 139.804 569.353 137.616 567.706 135.338C566.144 133.05 564.876 130.726 563.902 128.366C563.014 125.996 562.69 123.534 562.933 120.982C563.176 118.43 564.332 115.831 566.4 113.183C568.506 110.488 571.136 108.584 574.29 107.47C577.529 106.347 581.131 106.268 585.096 107.236C589.145 108.193 593.438 110.445 597.976 113.993C600.954 116.321 603.613 119.009 605.953 122.056C608.292 125.104 609.995 128.187 611.061 131.305L602.558 136.195C601.37 133.135 599.835 130.373 597.952 127.911C596.106 125.401 594.095 123.296 591.921 121.597C589.368 119.601 587.048 118.282 584.961 117.64C582.921 117.036 581.135 116.934 579.603 117.336C578.118 117.774 576.877 118.632 575.879 119.908C574.697 121.421 574.257 123.057 574.558 124.815C574.943 126.564 575.783 128.363 577.079 130.213C578.421 132.101 579.953 134.136 581.674 136.319C583.431 138.455 585.11 140.643 586.71 142.884C588.356 145.161 589.643 147.462 590.569 149.785C591.542 152.145 591.884 154.583 591.594 157.098C591.351 159.65 590.214 162.226 588.182 164.826C586.113 167.474 583.459 169.36 580.221 170.483C577.067 171.597 573.465 171.675 569.416 170.718C565.403 169.714 561.128 167.438 556.59 163.89Z" fill="black"/>
<path d="M608.866 216.273C605.72 212.49 603.237 208.425 601.417 204.077C599.642 199.691 598.761 195.769 598.773 192.311L608.323 189.578C608.418 192.789 609.149 196.25 610.517 199.959C611.884 203.669 613.815 207.023 616.308 210.022C618.418 212.559 620.401 214.381 622.256 215.486C624.112 216.592 625.806 217.128 627.339 217.094C628.917 217.022 630.304 216.484 631.498 215.48C632.968 214.246 633.699 212.731 633.689 210.937C633.726 209.104 633.287 207.121 632.373 204.99C631.544 202.866 630.495 200.573 629.229 198.111C628 195.695 626.822 193.198 625.693 190.62C624.648 188.05 623.898 185.506 623.444 182.989C623.074 180.479 623.274 177.999 624.046 175.548C624.818 173.098 626.49 170.792 629.063 168.631C631.681 166.431 634.646 165.117 637.956 164.687C641.35 164.265 644.88 164.944 648.545 166.724C652.294 168.511 656.009 171.619 659.692 176.048C662.109 178.955 664.139 182.147 665.782 185.625C667.425 189.103 668.44 192.482 668.826 195.762L659.507 198.771C658.99 195.522 658.072 192.493 656.751 189.685C655.476 186.838 653.956 184.353 652.192 182.231C650.12 179.739 648.134 177.96 646.232 176.893C644.369 175.873 642.648 175.398 641.07 175.471C639.53 175.589 638.139 176.169 636.899 177.211C635.429 178.446 634.656 179.957 634.581 181.744C634.591 183.538 635.033 185.478 635.909 187.563C636.823 189.695 637.89 192.011 639.111 194.511C640.378 196.973 641.556 199.47 642.647 202.002C643.776 204.58 644.548 207.104 644.965 209.576C645.419 212.093 645.241 214.554 644.431 216.958C643.66 219.409 642.01 221.695 639.484 223.818C636.911 225.979 633.927 227.27 630.533 227.692C627.223 228.122 623.693 227.443 619.944 225.656C616.241 223.83 612.548 220.702 608.866 216.273Z" fill="black"/>
<path d="M632 391.567C632 528.534 520.967 639.567 384 639.567C247.033 639.567 136 528.534 136 391.567C136 254.601 247.033 143.567 384 143.567C520.967 143.567 632 254.601 632 391.567Z" stroke="black" stroke-width="20"/>
<path d="M764 391.567C764 601.435 593.868 771.567 384 771.567C174.132 771.567 4 601.435 4 391.567C4 181.699 174.132 11.5672 384 11.5672C593.868 11.5672 764 181.699 764 391.567Z" stroke="black" stroke-width="8"/>
<path fill-rule="evenodd" clip-rule="evenodd" d="M386.969 163.922C386.469 160.499 381.531 160.499 381.031 163.922L352.758 357.789C352.566 359.102 351.535 360.133 350.222 360.325L156.355 388.599C152.932 389.098 152.932 394.037 156.355 394.536L350.222 422.81C351.535 423.001 352.566 424.032 352.758 425.345L381.031 619.212C381.531 622.635 386.469 622.635 386.969 619.212L415.243 425.345C415.434 424.032 416.465 423.001 417.778 422.81L611.645 394.536C615.068 394.037 615.068 389.098 611.645 388.599L417.778 360.325C416.465 360.133 415.434 359.102 415.243 357.789L386.969 163.922ZM384 418.567C398.912 418.567 411 406.479 411 391.567C411 376.656 398.912 364.567 384 364.567C369.088 364.567 357 376.656 357 391.567C357 406.479 369.088 418.567 384 418.567Z" fill="black"/>
<path fill-rule="evenodd" clip-rule="evenodd" d="M277.632 281.051C274.918 279.296 271.729 282.485 273.484 285.199L341.062 389.738C341.703 390.729 341.703 392.004 341.062 392.995L273.484 497.533C271.729 500.248 274.918 503.436 277.632 501.681L382.17 434.103C383.162 433.462 384.436 433.462 385.428 434.103L489.966 501.681C492.68 503.436 495.869 500.248 494.114 497.533L426.536 392.995C425.895 392.004 425.895 390.729 426.536 389.738L494.114 285.199C495.869 282.485 492.68 279.296 489.966 281.051L385.428 348.63C384.436 349.27 383.162 349.27 382.17 348.63L277.632 281.051ZM384 418.567C398.912 418.567 411 406.479 411 391.567C411 376.656 398.912 364.567 384 364.567C369.088 364.567 357 376.656 357 391.567C357 406.479 369.088 418.567 384 418.567Z" fill="black"/>
</svg>
