<svg width="41" height="40" viewBox="0 0 41 40" fill="none" xmlns="http://www.w3.org/2000/svg">
<path fill-rule="evenodd" clip-rule="evenodd" d="M0.677734 20C0.677734 8.95431 9.63204 0 20.6777 0C31.7234 0 40.6777 8.95431 40.6777 20C40.6777 31.0457 31.7234 40 20.6777 40C9.63204 40 0.677734 31.0457 0.677734 20ZM20.6777 10C26.1777 10 30.6777 14.5 30.6777 20C30.6777 25 27.0527 29.25 22.0527 30V22.875H24.4277L24.9277 20H22.1777V18.125C22.1777 17.375 22.5527 16.625 23.8027 16.625H25.0527V14.125C25.0527 14.125 23.9277 13.875 22.8027 13.875C20.5527 13.875 19.0527 15.25 19.0527 17.75V20H16.5527V22.875H19.0527V29.875C14.3027 29.125 10.6777 25 10.6777 20C10.6777 14.5 15.1777 10 20.6777 10Z" fill="#38415F"/>
</svg>
