<svg width="40" height="40" viewBox="0 0 40 40" fill="none" xmlns="http://www.w3.org/2000/svg">
<path d="M19.9196 23.4056C18.0522 23.4056 16.4337 21.9116 16.4337 19.9196C16.4337 18.0522 17.9277 16.4337 19.9196 16.4337C21.7871 16.4337 23.4056 17.9277 23.4056 19.9196C23.4056 21.7871 21.7871 23.4056 19.9196 23.4056Z" fill="#38415F"/>
<path fill-rule="evenodd" clip-rule="evenodd" d="M24.1526 11.4538H15.6867C14.6907 11.5783 14.1927 11.7028 13.8193 11.8273C13.3213 11.9518 12.9478 12.2008 12.5743 12.5743C12.2787 12.8698 12.1391 13.1654 11.9703 13.5226C11.9258 13.6167 11.8792 13.7154 11.8273 13.8192C11.808 13.877 11.7858 13.9378 11.762 14.0029C11.6317 14.3587 11.4538 14.8448 11.4538 15.6867V24.1526C11.5783 25.1485 11.7028 25.6465 11.8273 26.02C11.9518 26.518 12.2008 26.8915 12.5743 27.265C12.8698 27.5606 13.1654 27.7002 13.5226 27.869C13.6168 27.9135 13.7153 27.96 13.8193 28.012C13.877 28.0313 13.9378 28.0535 14.0029 28.0773C14.3587 28.2076 14.8448 28.3855 15.6867 28.3855H24.1526C25.1485 28.261 25.6465 28.1365 26.02 28.012C26.518 27.8875 26.8915 27.6385 27.265 27.265C27.5606 26.9695 27.7002 26.6739 27.869 26.3167C27.9135 26.2225 27.96 26.1239 28.012 26.02C28.0313 25.9623 28.0535 25.9015 28.0773 25.8364C28.2076 25.4805 28.3855 24.9945 28.3855 24.1526V15.6867C28.261 14.6907 28.1365 14.1927 28.012 13.8192C27.8875 13.3213 27.6385 12.9478 27.265 12.5743C26.9695 12.2787 26.6739 12.1391 26.3167 11.9703C26.2226 11.9259 26.1238 11.8792 26.02 11.8273C25.9623 11.808 25.9015 11.7858 25.8364 11.762C25.4805 11.6317 24.9945 11.4538 24.1526 11.4538ZM19.9196 14.5662C16.9317 14.5662 14.5662 16.9317 14.5662 19.9196C14.5662 22.9076 16.9317 25.273 19.9196 25.273C22.9076 25.273 25.273 22.9076 25.273 19.9196C25.273 16.9317 22.9076 14.5662 19.9196 14.5662ZM26.6425 14.4417C26.6425 15.1293 26.0851 15.6867 25.3975 15.6867C24.71 15.6867 24.1526 15.1293 24.1526 14.4417C24.1526 13.7542 24.71 13.1968 25.3975 13.1968C26.0851 13.1968 26.6425 13.7542 26.6425 14.4417Z" fill="#38415F"/>
<path fill-rule="evenodd" clip-rule="evenodd" d="M0 19.9196C0 8.91833 8.91833 0 19.9196 0C30.921 0 39.8393 8.91833 39.8393 19.9196C39.8393 30.921 30.921 39.8393 19.9196 39.8393C8.91833 39.8393 0 30.921 0 19.9196ZM15.6867 9.58632H24.1526C25.273 9.71082 26.02 9.83532 26.6425 10.0843C27.3895 10.4578 27.8875 10.7068 28.51 11.3293C29.1325 11.9518 29.506 12.5743 29.755 13.1968C30.004 13.8192 30.253 14.5662 30.253 15.6867V24.1526C30.1285 25.273 30.004 26.02 29.755 26.6425C29.3815 27.3895 29.1325 27.8875 28.51 28.51C27.8875 29.1325 27.265 29.506 26.6425 29.755C26.02 30.004 25.273 30.253 24.1526 30.253H15.6867C14.5662 30.1285 13.8193 30.004 13.1968 29.755C12.4498 29.3815 11.9518 29.1325 11.3293 28.51C10.7068 27.8875 10.3333 27.265 10.0843 26.6425C9.83532 26.02 9.58633 25.273 9.58633 24.1526V15.6867C9.71083 14.5662 9.83532 13.8192 10.0843 13.1968C10.4578 12.4498 10.7068 11.9518 11.3293 11.3293C11.9518 10.7068 12.5743 10.3333 13.1968 10.0843C13.8193 9.83532 14.5662 9.58632 15.6867 9.58632Z" fill="#38415F"/>
</svg>
