<svg width="41" height="40" viewBox="0 0 41 40" fill="none" xmlns="http://www.w3.org/2000/svg">
<path d="M11.0487 15.9357H10.4262V16.5582V29.8795V30.502H11.0487H15.2816H15.9041V29.8795V16.5582V15.9357H15.2816H11.0487ZM25.8639 29.8795V30.502H26.4864H30.4703H31.0928V29.8795V21.6626C31.0928 19.4781 30.4266 17.9274 29.3541 16.9277C28.2917 15.9373 26.9105 15.5622 25.6149 15.5622C24.4194 15.5622 23.3994 15.9494 22.6268 16.4586C22.4963 16.5446 22.3717 16.6349 22.2535 16.7284V16.5582V15.9357H21.631H17.647H17.0246V16.5582V29.8795V30.502H17.647H21.88H22.5024V29.8795V22.7831C22.5024 21.24 23.4878 20.5421 24.3699 20.5421C24.8938 20.5421 25.2184 20.6712 25.4298 20.909C25.6568 21.1644 25.8639 21.6674 25.8639 22.6586V29.8795ZM1.46233 19.9196C1.46233 9.26212 10.102 0.622489 20.7595 0.622489C31.417 0.622489 40.0566 9.26212 40.0566 19.9196C40.0566 30.5772 31.417 39.2168 20.7595 39.2168C10.102 39.2168 1.46233 30.5772 1.46233 19.9196ZM10.1772 12.3253C10.1772 14.0385 11.4519 15.3132 13.1651 15.3132C14.8784 15.3132 16.1531 14.0385 16.1531 12.3253C16.1531 10.612 14.8784 9.33733 13.1651 9.33733C11.5979 9.33733 10.1772 10.5909 10.1772 12.3253Z" fill="#38415F" stroke="#38415F" stroke-width="1.24498"/>
</svg>
